<svg fill="#000000" width="256px" height="256px" viewBox="0 0 24 24" id="music-album-2" data-name="Flat Line" xmlns="http://www.w3.org/2000/svg" class="icon flat-line"><g id="SVGRepo_bgCarrier" stroke-width="0"></g><g id="SVGRepo_tracerCarrier" stroke-linecap="round" stroke-linejoin="round"></g><g id="SVGRepo_iconCarrier"><path id="secondary" d="M18,4H4A1,1,0,0,0,3,5V19a1,1,0,0,0,1,1H18a1,1,0,0,0,1-1V5A1,1,0,0,0,18,4ZM9,16a2,2,0,1,1,2-2A2,2,0,0,1,9,16Z" style="fill: #58798d; stroke-width: 2;"></path><path id="primary" d="M11,14V8a2.9,2.9,0,0,1,3,3" style="fill: none; stroke: #000000; stroke-linecap: round; stroke-linejoin: round; stroke-width: 2;"></path><path id="primary-2" data-name="primary" d="M11,14a2,2,0,1,1-2-2A2,2,0,0,1,11,14Zm8,5V5a1,1,0,0,0-1-1H4A1,1,0,0,0,3,5V19a1,1,0,0,0,1,1H18A1,1,0,0,0,19,19Zm2-7a5,5,0,0,1-2,4V8A5,5,0,0,1,21,12Z" style="fill: none; stroke: #000000; stroke-linecap: round; stroke-linejoin: round; stroke-width: 2;"></path></g></svg>